<?xml version="1.0" encoding="iso-8859-1"?>
<!-- Generator: Adobe Illustrator 19.0.0, SVG Export Plug-In . SVG Version: 6.00 Build 0)  -->
<svg version="1.1" id="Layer_1" xmlns="http://www.w3.org/2000/svg" xmlns:xlink="http://www.w3.org/1999/xlink" x="0px" y="0px"
	 viewBox="0 0 512 512" style="enable-background:new 0 0 512 512;" xml:space="preserve">
<path style="fill:#314E55;" d="M474.074,426.667H445.63v-47.407c0-5.241-4.241-9.482-9.481-9.482h-37.926v-37.926
	c0-5.241-4.241-9.482-9.481-9.482h-37.926v-28.444c0-5.241-4.241-9.481-9.481-9.481H322.37v-18.963c0-5.241-4.241-9.481-9.481-9.481
	h-66.37c-5.241,0-9.481,4.241-9.481,9.481v18.963h-18.963c-5.241,0-9.481,4.241-9.481,9.481v28.444h-37.926
	c-5.241,0-9.481,4.241-9.481,9.482v37.926h-37.926c-5.241,0-9.481,4.241-9.481,9.482v47.407H56.889
	c-5.241,0-9.481,4.241-9.481,9.481v66.37c0,5.241,4.241,9.481,9.481,9.481h417.185c5.241,0,9.482-4.241,9.482-9.481v-66.37
	C483.556,430.907,479.315,426.667,474.074,426.667z"/>
<rect x="256" y="274.963" style="fill:#E4AD40;" width="47.407" height="9.481"/>
<polygon style="fill:#DBCF56;" points="227.556,303.407 246.519,303.407 312.889,303.407 331.852,303.407 331.852,322.37 
	227.556,322.37 "/>
<polygon style="fill:#E4AD40;" points="180.148,341.333 218.074,341.333 341.333,341.333 379.259,341.333 379.259,369.778 
	180.148,369.778 "/>
<polygon style="fill:#DBCF56;" points="132.741,388.741 170.667,388.741 388.741,388.741 426.667,388.741 426.667,426.667 
	132.741,426.667 "/>
<polygon style="fill:#E4AD40;" points="464.593,493.037 66.37,493.037 66.37,445.63 123.259,445.63 436.148,445.63 464.593,445.63 
	"/>
<path style="fill:#314E55;" d="M180.148,227.555c1.148,0,2.25-0.213,3.269-0.611c25.315-3.898,44.139-25.667,44.139-51.537
	c0-27.213-20.954-49.63-47.574-51.954c-2.333-31.87-29.009-57.083-61.463-57.083c-33.981,0-61.63,27.648-61.63,61.63
	c0,1.935,0.083,3.852,0.259,5.759c-3.185-0.676-6.454-1.019-9.741-1.019C21.269,132.741,0,154.009,0,180.148
	s21.269,47.407,47.407,47.407H180.148z"/>
<path style="fill:#73C9C9;" d="M18.963,180.148c0-15.685,12.759-28.444,28.444-28.444c6.657,0,13.13,2.352,18.231,6.611
	c3.435,2.88,8.407,2.963,11.945,0.185c3.519-2.769,4.62-7.62,2.648-11.648c-2.907-5.889-4.38-12.231-4.38-18.852
	c0-23.528,19.139-42.667,42.667-42.667s42.667,19.139,42.667,42.667c0,1.389-0.065,2.769-0.194,4.13
	c-0.278,2.843,0.75,5.657,2.787,7.667c2.046,2,4.889,2.944,7.713,2.657c1.287-0.148,2.592-0.232,3.917-0.232
	c18.296,0,33.185,14.889,33.185,33.185c0,16.944-12.676,31.12-29.491,32.982c-0.389,0.046-0.768,0.111-1.139,0.204H47.407
	C31.722,208.592,18.963,195.833,18.963,180.148z"/>
<path style="fill:#314E55;" d="M474.935,48.676c-1.444,0-2.889,0.083-4.324,0.259c0.009-0.407,0.018-0.805,0.018-1.213
	C470.63,21.407,449.361,0,423.222,0c-24.259,0-44.324,18.435-47.083,42.13c-19.648,2.796-34.806,19.833-34.806,40.361
	c0,20.093,14.417,37.019,33.889,40.222c0.991,0.352,2.065,0.546,3.176,0.546h96.537c20.435,0,37.065-16.731,37.065-37.296
	C512,65.407,495.37,48.676,474.935,48.676z"/>
<path style="fill:#73C9C9;" d="M474.935,104.296h-94.62c-0.287-0.055-0.574-0.102-0.87-0.139
	c-10.916-1.213-19.148-10.528-19.148-21.667c0-12.028,9.667-21.806,21.546-21.806c0.852,0,1.694,0.046,2.518,0.139
	c2.815,0.343,5.676-0.63,7.722-2.63c2.046-1.991,3.083-4.805,2.824-7.648c-0.083-0.935-0.13-1.87-0.13-2.824
	c0-15.861,12.759-28.759,28.444-28.759s28.444,12.898,28.444,28.759c0,4.472-0.991,8.75-2.935,12.731
	c-1.972,4.028-0.852,8.889,2.685,11.639c3.546,2.769,8.528,2.667,11.945-0.222c3.287-2.769,7.287-4.232,11.574-4.232
	c9.981,0,18.102,8.222,18.102,18.324C493.037,96.074,484.917,104.296,474.935,104.296z"/>
<g>
</g>
<g>
</g>
<g>
</g>
<g>
</g>
<g>
</g>
<g>
</g>
<g>
</g>
<g>
</g>
<g>
</g>
<g>
</g>
<g>
</g>
<g>
</g>
<g>
</g>
<g>
</g>
<g>
</g>
</svg>
